<?xml version="1.0" encoding="iso-8859-1"?>
<!-- Generator: Adobe Illustrator 19.0.0, SVG Export Plug-In . SVG Version: 6.00 Build 0)  -->
<svg version="1.1" id="Capa_1" xmlns="http://www.w3.org/2000/svg" xmlns:xlink="http://www.w3.org/1999/xlink" x="0px" y="0px"
	 viewBox="0 0 512.007 512.007" style="enable-background:new 0 0 512.007 512.007;" xml:space="preserve">
<g>
	<g>
		<path d="M494.039,350.786c-0.482-3.29-1.167-6.546-2.048-9.752c-0.107-0.386-0.219-0.768-0.331-1.152
			c-1.998-6.96-4.926-13.619-8.704-19.796c21.198-18.417,31.849-46.171,28.415-74.041c-0.136-1.185-0.353-2.343-0.538-3.515
			c-0.323-2.026-0.696-4.029-1.16-6.004c-0.335-1.446-0.698-2.874-1.107-4.293c-0.45-1.547-0.971-3.06-1.505-4.571
			c-0.569-1.626-1.109-3.256-1.774-4.838l-0.015-0.032c-1.976-4.623-4.362-9.06-7.13-13.257c-0.347-0.533-0.672-1.079-1.031-1.604
			c-1.273-1.864-2.631-3.656-4.053-5.416c-0.473-0.586-0.962-1.156-1.451-1.73c-1.463-1.715-2.946-3.405-4.55-5.005
			c-0.31-0.311-0.651-0.588-0.967-0.894c-2.739-2.645-5.653-5.103-8.721-7.358c-1.33-0.987-2.658-1.973-4.046-2.884
			c-0.525-0.342-0.988-0.753-1.522-1.085c4.043-9.467,6.107-19.66,6.067-29.954c0-2.563-0.139-5.093-0.385-7.592
			c-0.082-0.83-0.242-1.634-0.351-2.457c-0.217-1.65-0.432-3.298-0.752-4.914c-0.193-0.976-0.461-1.922-0.691-2.885
			c-0.341-1.426-0.674-2.854-1.095-4.248c-0.304-1.009-0.671-1.988-1.016-2.98c-0.451-1.298-0.898-2.595-1.416-3.861
			c-0.413-1.009-0.875-1.99-1.329-2.977c-0.55-1.197-1.104-2.389-1.713-3.552c-0.517-0.987-1.071-1.947-1.63-2.909
			c-0.64-1.103-1.291-2.194-1.983-3.261c-0.618-0.953-1.262-1.882-1.921-2.806c-0.721-1.011-1.46-2.004-2.228-2.978
			c-0.717-0.909-1.452-1.801-2.206-2.676c-0.791-0.915-1.606-1.805-2.439-2.682c-0.813-0.857-1.633-1.701-2.484-2.519
			c-0.851-0.818-1.732-1.604-2.621-2.383c-0.907-0.796-1.815-1.588-2.759-2.341c-0.899-0.717-1.83-1.39-2.761-2.066
			c-1.003-0.729-1.999-1.462-3.038-2.143c-0.938-0.614-1.909-1.174-2.875-1.748c-1.091-0.649-2.169-1.311-3.294-1.907
			c-0.978-0.518-1.994-0.969-2.996-1.446c-1.168-0.555-2.319-1.135-3.517-1.631c-1.02-0.423-2.079-0.765-3.12-1.144
			c-1.23-0.448-2.441-0.935-3.699-1.321c-1.223-0.375-2.489-0.647-3.738-0.963c-1.984-0.501-3.995-0.923-6.033-1.268
			c-1.42-0.239-2.827-0.516-4.271-0.676c-1.702-36.892-28.144-67.962-64.289-75.54c-36.145-7.579-72.84,10.253-89.218,43.354
			C239.627,11.985,202.933-5.848,166.787,1.73s-62.589,38.647-64.291,75.539c-1.965,0.216-3.891,0.554-5.808,0.916
			c-0.418,0.079-0.849,0.113-1.265,0.199c-2.405,0.495-4.765,1.111-7.083,1.826c-0.791,0.244-1.546,0.56-2.326,0.829
			c-1.518,0.523-3.038,1.041-4.512,1.655c-0.904,0.377-1.77,0.821-2.657,1.232c-1.298,0.601-2.601,1.192-3.858,1.861
			c-0.918,0.489-1.796,1.033-2.691,1.557c-1.172,0.687-2.344,1.368-3.475,2.114c-0.886,0.583-1.735,1.213-2.596,1.831
			c-1.079,0.776-2.153,1.556-3.189,2.386c-0.834,0.668-1.636,1.369-2.441,2.07c-0.994,0.866-1.974,1.741-2.921,2.656
			c-0.772,0.745-1.517,1.512-2.257,2.289c-0.906,0.949-1.789,1.916-2.645,2.911c-0.702,0.815-1.385,1.643-2.051,2.486
			c-0.816,1.032-1.6,2.085-2.364,3.159c-0.621,0.874-1.232,1.753-1.818,2.654c-0.723,1.113-1.403,2.251-2.069,3.402
			c-0.534,0.924-1.067,1.845-1.564,2.793c-0.629,1.198-1.201,2.426-1.766,3.661c-0.438,0.956-0.886,1.905-1.286,2.882
			c-0.527,1.289-0.984,2.61-1.442,3.933c-0.338,0.974-0.698,1.936-0.997,2.929c-0.424,1.407-0.761,2.848-1.105,4.288
			c-0.227,0.95-0.492,1.883-0.683,2.846c-0.323,1.625-0.538,3.283-0.756,4.943c-0.107,0.816-0.267,1.615-0.348,2.438
			c-0.246,2.5-0.385,5.031-0.385,7.594c-0.04,10.292,2.024,20.484,6.067,29.95c-0.547,0.34-1.021,0.76-1.559,1.111
			c-1.344,0.882-2.629,1.839-3.918,2.794c-3.146,2.305-6.131,4.822-8.933,7.535c-0.272,0.265-0.568,0.504-0.836,0.773
			c-1.612,1.609-3.103,3.307-4.574,5.032c-0.48,0.565-0.961,1.125-1.427,1.702c-1.426,1.765-2.789,3.564-4.066,5.433
			c-0.354,0.518-0.674,1.057-1.018,1.583c-3.695,5.669-6.694,11.764-8.931,18.15c-0.533,1.507-1.052,3.017-1.502,4.562
			c-0.408,1.42-0.772,2.847-1.107,4.294c-0.464,1.976-0.836,3.979-1.16,6.004c-0.184,1.172-0.402,2.329-0.538,3.515
			c-3.434,27.872,7.215,55.627,28.41,74.049c-3.777,6.176-6.703,12.833-8.7,19.791c-0.112,0.384-0.225,0.767-0.332,1.153
			c-0.882,3.206-1.566,6.464-2.048,9.754c-0.078,0.536-0.128,1.078-0.195,1.617c-0.447,3.404-0.682,6.832-0.702,10.266
			c-0.168,37.764,25.89,70.589,62.708,78.992c0.245,0.948,0.576,1.856,0.849,2.792c0.267,0.911,0.533,1.82,0.827,2.719
			c0.671,2.064,1.423,4.084,2.229,6.078c0.259,0.638,0.493,1.286,0.765,1.918c3.447,8.01,7.999,15.498,13.522,22.246
			c0.343,0.42,0.706,0.818,1.056,1.231c1.476,1.743,3.004,3.432,4.599,5.06c0.534,0.546,1.079,1.079,1.626,1.613
			c1.486,1.444,3.017,2.836,4.594,4.176c0.647,0.553,1.288,1.109,1.949,1.644c1.601,1.291,3.254,2.51,4.937,3.694
			c0.662,0.467,1.303,0.961,1.978,1.412c2.303,1.533,4.661,2.987,7.096,4.316c0.492,0.269,1.013,0.488,1.511,0.749
			c1.984,1.036,3.994,2.026,6.055,2.921c1.054,0.459,2.14,0.85,3.213,1.271c1.563,0.611,3.131,1.206,4.731,1.735
			c1.172,0.387,2.357,0.734,3.549,1.075c1.604,0.46,3.223,0.878,4.856,1.252c1.168,0.268,2.335,0.53,3.519,0.754
			c1.837,0.348,3.695,0.614,5.565,0.852c1.011,0.129,2.011,0.292,3.033,0.387c2.916,0.276,5.856,0.447,8.833,0.447
			c36.754-0.055,70.099-21.543,85.333-54.991c15.235,33.448,48.579,54.936,85.333,54.991c2.977,0,5.917-0.172,8.833-0.447
			c1.021-0.096,2.021-0.259,3.033-0.387c1.869-0.238,3.728-0.504,5.565-0.852c1.184-0.224,2.351-0.486,3.519-0.754
			c1.635-0.375,3.254-0.792,4.856-1.252c1.192-0.341,2.377-0.688,3.55-1.075c1.6-0.529,3.168-1.124,4.731-1.735
			c1.074-0.421,2.159-0.812,3.213-1.271c2.06-0.895,4.07-1.885,6.055-2.921c0.497-0.261,1.019-0.48,1.511-0.749
			c2.435-1.329,4.793-2.782,7.096-4.316c0.674-0.451,1.315-0.945,1.978-1.412c1.683-1.184,3.335-2.403,4.937-3.694
			c0.662-0.535,1.303-1.092,1.949-1.644c1.576-1.343,3.108-2.735,4.594-4.176c0.547-0.533,1.092-1.066,1.626-1.613
			c1.596-1.628,3.123-3.318,4.599-5.06c0.35-0.413,0.713-0.811,1.056-1.231c5.523-6.748,10.074-14.236,13.522-22.246
			c0.272-0.631,0.506-1.28,0.765-1.918c0.806-1.994,1.557-4.014,2.229-6.078c0.294-0.899,0.559-1.808,0.827-2.719
			c0.273-0.935,0.604-1.844,0.849-2.792c36.82-8.4,62.879-41.226,62.708-78.992c-0.02-3.432-0.255-6.86-0.702-10.264
			C494.167,351.868,494.118,351.325,494.039,350.786z M247.47,85.34h-18.639c-4.156-11.755-16.176-18.806-28.465-16.698
			c-12.289,2.108-21.271,12.763-21.271,25.231c0,12.468,8.982,23.123,21.271,25.231c12.289,2.108,24.309-4.943,28.465-16.698h18.639
			v31.403l-37.05,51.868l-31.343-13.752c0.021-0.424,0.126-0.823,0.126-1.253c0.125-12.491-8.695-23.286-20.96-25.653
			c-12.265-2.367-24.469,4.372-29,16.012s-0.094,24.856,10.544,31.404c10.638,6.548,24.435,4.556,32.787-4.732l30.988,13.598
			c2.148,0.944,4.47,1.431,6.817,1.429c5.521,0.006,10.707-2.651,13.925-7.138l23.167-32.432v67.244h-69.839
			c-4.156-11.755-16.176-18.806-28.465-16.698s-21.271,12.763-21.271,25.231s8.982,23.123,21.271,25.231s24.309-4.943,28.465-16.698
			h69.839v34.133h-18.639c-4.156-11.755-16.176-18.806-28.465-16.698c-12.289,2.108-21.271,12.763-21.271,25.231
			s8.982,23.123,21.271,25.231s24.309-4.943,28.465-16.698h18.639v34.133h-69.808c-8.128,0.02-15.122,5.754-16.733,13.721
			l-6.019,30.112c-11.816,3.598-19.337,15.168-17.828,27.427c1.509,12.259,11.612,21.66,23.948,22.284
			c12.336,0.624,23.336-7.708,26.075-19.753s-3.575-24.315-14.968-29.087l5.525-27.638h69.808v68.267
			c-0.048,42.396-34.404,76.752-76.8,76.8c-2.48,0-4.927-0.142-7.348-0.372c-0.875-0.084-1.733-0.234-2.601-0.347
			c-1.52-0.198-3.037-0.407-4.528-0.693c-1.029-0.198-2.04-0.446-3.055-0.685c-1.303-0.306-2.599-0.628-3.876-0.999
			c-1.045-0.305-2.078-0.638-3.106-0.985c-1.225-0.414-2.435-0.858-3.631-1.332c-0.992-0.393-1.98-0.794-2.952-1.225
			c-1.233-0.548-2.439-1.143-3.636-1.754c-0.87-0.443-1.748-0.873-2.6-1.349c-1.388-0.776-2.733-1.615-4.067-2.473
			c-0.602-0.386-1.223-0.743-1.814-1.146c-3.938-2.687-7.619-5.731-10.997-9.095c-0.128-0.127-0.244-0.266-0.37-0.394
			c-1.541-1.559-3.015-3.181-4.423-4.866c-0.26-0.312-0.503-0.64-0.758-0.957c-1.237-1.533-2.424-3.108-3.542-4.734
			c-0.286-0.416-0.558-0.841-0.836-1.264c-1.032-1.566-2.007-3.17-2.927-4.813c-0.277-0.496-0.549-0.996-0.817-1.5
			c-0.855-1.615-1.646-3.267-2.386-4.947c-0.244-0.554-0.495-1.104-0.727-1.664c-0.697-1.69-1.316-3.418-1.894-5.166
			c-0.189-0.573-0.401-1.137-0.577-1.716c-0.581-1.909-1.068-3.857-1.501-5.825c-0.093-0.422-0.215-0.831-0.301-1.256
			c-4.353-21.479,0.678-43.794,13.828-61.326c2.831-3.769,2.069-9.12-1.7-11.95c-3.769-2.83-9.12-2.069-11.95,1.7
			c-12.241,16.224-18.835,36.009-18.775,56.333c0,1.69,0.165,3.336,0.254,5.005c-25.781-8.885-43.04-33.203-42.92-60.471
			c-0.001-3.513,0.284-7.02,0.851-10.487c0.066-0.408,0.217-0.786,0.291-1.191c1.8-9.945,5.974-19.309,12.166-27.297
			c0.055-0.07,0.064-0.163,0.116-0.234c8.057-10.433,19.149-18.111,31.751-21.978c4.506-1.385,7.035-6.161,5.65-10.667
			c-1.385-4.506-6.161-7.035-10.667-5.65c-13.218,4.051-25.18,11.418-34.746,21.399c-14.281-12.935-22.443-31.293-22.479-50.561
			c0.022-2.863,0.221-5.722,0.596-8.56c0.113-0.905,0.263-1.799,0.412-2.693c0.319-1.941,0.738-3.85,1.219-5.739
			c0.246-0.956,0.452-1.927,0.739-2.866c0.71-2.34,1.545-4.64,2.504-6.89c0.558-1.307,1.209-2.563,1.846-3.826
			c0.529-1.057,1.077-2.103,1.66-3.13c0.784-1.373,1.587-2.735,2.461-4.047c0.503-0.756,1.064-1.472,1.597-2.208
			c1.661-2.288,3.461-4.471,5.39-6.538c0.755-0.807,1.5-1.621,2.297-2.392c1.045-1.016,2.127-1.992,3.234-2.94
			c1.22-1.039,2.492-2.027,3.792-2.985c1.029-0.763,2.052-1.527,3.123-2.232c1.982-1.294,4.029-2.486,6.132-3.572
			c9.656-5.023,20.38-7.647,31.264-7.649c4.713,0,8.533-3.82,8.533-8.533s-3.821-8.533-8.533-8.533
			c-10.156,0.02-20.225,1.866-29.728,5.449c-2.937-7.142-4.434-14.794-4.406-22.516c0.008-21.146,11.192-40.713,29.409-51.452
			c18.216-10.739,40.752-11.05,59.258-0.819c4.118,2.259,9.287,0.765,11.567-3.341s0.812-9.283-3.283-11.583
			c-8.813-4.857-18.495-7.932-28.496-9.05c1.984-34.562,31.107-61.272,65.711-60.266s62.127,29.36,62.102,63.979V85.34z
			 M213.337,93.874c0,4.713-3.821,8.533-8.533,8.533s-8.533-3.821-8.533-8.533c0-4.713,3.82-8.533,8.533-8.533
			C209.514,85.345,213.332,89.163,213.337,93.874z M162.137,170.674c0,4.713-3.821,8.533-8.533,8.533
			c-4.713,0-8.533-3.82-8.533-8.533s3.821-8.533,8.533-8.533C158.314,162.145,162.132,165.963,162.137,170.674z M162.137,238.94
			c0,4.713-3.821,8.533-8.533,8.533c-4.713,0-8.533-3.82-8.533-8.533s3.821-8.533,8.533-8.533
			C158.314,230.412,162.132,234.229,162.137,238.94z M213.337,290.14c0,4.713-3.821,8.533-8.533,8.533s-8.533-3.82-8.533-8.533
			s3.82-8.533,8.533-8.533C209.514,281.612,213.332,285.429,213.337,290.14z M170.67,401.074c0,4.713-3.82,8.533-8.533,8.533
			s-8.533-3.82-8.533-8.533s3.82-8.533,8.533-8.533C166.848,392.545,170.666,396.363,170.67,401.074z M434.95,423.146
			c0.089-1.668,0.254-3.316,0.254-5.006c0.06-20.324-6.534-40.109-18.775-56.333c-2.83-3.769-8.181-4.53-11.95-1.7
			c-3.769,2.83-4.53,8.181-1.7,11.95c13.15,17.532,18.181,39.847,13.828,61.326c-0.086,0.424-0.208,0.834-0.301,1.256
			c-0.433,1.968-0.92,3.916-1.501,5.825c-0.177,0.58-0.388,1.145-0.577,1.719c-0.577,1.744-1.195,3.469-1.891,5.156
			c-0.233,0.567-0.487,1.121-0.733,1.681c-0.74,1.676-1.528,3.326-2.382,4.937c-0.267,0.504-0.539,1.004-0.817,1.5
			c-0.918,1.643-1.893,3.247-2.927,4.813c-0.278,0.422-0.55,0.848-0.836,1.264c-1.118,1.626-2.305,3.202-3.542,4.734
			c-0.256,0.317-0.498,0.645-0.758,0.957c-1.405,1.685-2.879,3.307-4.423,4.866c-0.127,0.128-0.243,0.267-0.37,0.394
			c-3.378,3.364-7.059,6.409-10.997,9.095c-0.591,0.403-1.212,0.759-1.814,1.146c-1.333,0.858-2.679,1.697-4.067,2.473
			c-0.853,0.475-1.731,0.907-2.602,1.35c-1.196,0.61-2.401,1.204-3.631,1.752c-0.974,0.433-1.965,0.834-2.958,1.227
			c-1.195,0.473-2.404,0.916-3.628,1.33c-1.028,0.347-2.061,0.681-3.106,0.986c-1.276,0.371-2.572,0.693-3.876,0.999
			c-1.014,0.239-2.026,0.487-3.055,0.685c-1.491,0.286-3.008,0.494-4.528,0.693c-0.868,0.114-1.725,0.263-2.601,0.347
			c-2.42,0.231-4.867,0.372-7.347,0.372c-42.396-0.048-76.752-34.404-76.8-76.8v-31.403l37.05-51.868l31.343,13.752
			c-0.021,0.424-0.126,0.823-0.126,1.252c-0.125,12.491,8.695,23.286,20.96,25.652c12.265,2.367,24.469-4.372,29-16.012
			s0.094-24.856-10.544-31.404c-10.638-6.548-24.435-4.556-32.787,4.732l-30.987-13.598c-7.396-3.219-16.035-0.841-20.742,5.709
			l-23.167,32.431V290.14h69.84c4.156,11.755,16.177,18.805,28.465,16.697s21.27-12.764,21.27-25.231s-8.983-23.122-21.271-25.23
			c-12.288-2.108-24.308,4.943-28.464,16.698h-69.839V238.94h18.64c4.156,11.755,16.177,18.805,28.465,16.697
			c12.288-2.109,21.27-12.764,21.27-25.231c0-12.468-8.983-23.122-21.271-25.23c-12.288-2.108-24.308,4.943-28.464,16.698h-18.639
			v-42.667h27.142c8.128-0.02,15.122-5.754,16.733-13.721l6.02-30.112c11.818-3.597,19.34-15.168,17.832-27.428
			c-1.508-12.26-11.611-21.663-23.948-22.288s-23.339,7.708-26.078,19.753c-2.74,12.045,3.574,24.317,14.968,29.09l-5.526,27.639
			h-27.142V81.073c-0.02-34.618,27.507-62.969,62.111-63.969s63.723,25.714,65.702,60.275c-10.457,1.164-20.563,4.468-29.688,9.707
			c-4.06,2.37-5.44,7.577-3.085,11.647c2.355,4.069,7.557,5.468,11.635,3.128c18.485-10.658,41.25-10.649,59.727,0.022
			c18.477,10.672,29.86,30.387,29.865,51.724c0.029,7.722-1.468,15.374-4.405,22.516c-9.503-3.583-19.573-5.429-29.729-5.449
			c-4.713,0-8.533,3.82-8.533,8.533s3.82,8.533,8.533,8.533c10.885,0.002,21.609,2.626,31.265,7.649
			c2.103,1.086,4.15,2.279,6.132,3.572c1.071,0.705,2.095,1.47,3.123,2.232c1.301,0.958,2.572,1.946,3.792,2.985
			c1.107,0.948,2.189,1.924,3.234,2.94c0.796,0.771,1.542,1.585,2.297,2.392c1.929,2.067,3.729,4.25,5.39,6.538
			c0.533,0.736,1.094,1.452,1.597,2.208c0.875,1.312,1.678,2.673,2.461,4.047c0.583,1.027,1.131,2.072,1.66,3.13
			c0.637,1.263,1.287,2.52,1.846,3.826c0.958,2.25,1.794,4.55,2.504,6.89c0.286,0.939,0.493,1.91,0.739,2.866
			c0.481,1.889,0.9,3.798,1.219,5.739c0.149,0.894,0.299,1.787,0.412,2.693c0.375,2.838,0.574,5.697,0.596,8.56
			c-0.036,19.268-8.198,37.627-22.479,50.561c-9.566-9.981-21.528-17.348-34.746-21.399c-4.506-1.385-9.281,1.144-10.667,5.65
			s1.144,9.281,5.65,10.667c12.589,3.863,23.673,11.532,31.727,21.951c0.059,0.082,0.07,0.186,0.132,0.266
			c6.247,8.045,10.444,17.488,12.229,27.516c0.058,0.327,0.181,0.631,0.234,0.959c0.569,3.47,0.854,6.98,0.852,10.496
			C477.992,389.943,460.732,414.262,434.95,423.146z M349.87,349.874c0-4.713,3.82-8.533,8.533-8.533s8.533,3.82,8.533,8.533
			s-3.82,8.533-8.533,8.533C353.693,358.402,349.875,354.584,349.87,349.874z M349.87,281.607c0-4.713,3.82-8.533,8.533-8.533
			s8.533,3.821,8.533,8.533s-3.82,8.533-8.533,8.533C353.693,290.135,349.875,286.318,349.87,281.607z M298.67,230.407
			c0-4.713,3.82-8.533,8.533-8.533s8.533,3.82,8.533,8.533s-3.82,8.533-8.533,8.533C302.493,238.935,298.675,235.118,298.67,230.407
			z M298.67,110.94c0-4.713,3.82-8.533,8.533-8.533s8.533,3.82,8.533,8.533s-3.82,8.533-8.533,8.533
			C302.493,119.469,298.675,115.651,298.67,110.94z"/>
	</g>
</g>
<g>
</g>
<g>
</g>
<g>
</g>
<g>
</g>
<g>
</g>
<g>
</g>
<g>
</g>
<g>
</g>
<g>
</g>
<g>
</g>
<g>
</g>
<g>
</g>
<g>
</g>
<g>
</g>
<g>
</g>
</svg>
