<?xml version="1.0" encoding="iso-8859-1"?>
<!-- Generator: Adobe Illustrator 19.0.0, SVG Export Plug-In . SVG Version: 6.00 Build 0)  -->
<svg version="1.1" id="Capa_1" xmlns="http://www.w3.org/2000/svg" xmlns:xlink="http://www.w3.org/1999/xlink" x="0px" y="0px"
	 viewBox="0 0 512 512" style="enable-background:new 0 0 512 512;" xml:space="preserve">
<g>
	<g>
		<path d="M417.257,0H94.743C42.503,0,0.001,42.501,0.001,94.743v322.514C0.001,469.499,42.503,512,94.743,512h322.513
			c52.241,0,94.743-42.501,94.743-94.743V94.743C511.999,42.502,469.497,0,417.257,0z M152.447,30.026h157.835v92.857H152.447
			V30.026z M30.027,94.743c0-35.685,29.032-64.717,64.717-64.717h27.676v92.857H30.027V94.743z M30.027,152.91h210.535v90.43H30.027
			V152.91z M365.162,273.365v88.077H152.447v-88.077H365.162z M30.027,273.365h92.394v88.077H30.027V273.365z M240.964,481.974
			H94.743c-35.684,0-64.717-29.032-64.717-64.717V391.47h210.938V481.974z M481.974,417.257c0,35.684-29.032,64.717-64.717,64.717
			H270.991V391.47h210.984V417.257z M481.974,361.442h-86.786v-88.077h86.786V361.442z M481.974,243.339H270.588v-90.43h211.386
			V243.339z M481.974,122.884H340.308V30.026h76.949c35.684,0,64.717,29.031,64.717,64.717V122.884z"/>
	</g>
</g>
<g>
</g>
<g>
</g>
<g>
</g>
<g>
</g>
<g>
</g>
<g>
</g>
<g>
</g>
<g>
</g>
<g>
</g>
<g>
</g>
<g>
</g>
<g>
</g>
<g>
</g>
<g>
</g>
<g>
</g>
</svg>
